<svg xmlns="http://www.w3.org/2000/svg" width="11" height="12" viewBox="0 0 11 12"><g><g><path fill="#754ef9" d="M9.703 1.772C8.96.96 7.973.552 6.75.552c-.451 0-.861.056-1.23.167-.37.111-.68.267-.935.467-.254.201-.457.387-.607.56a4.61 4.61 0 0 0-.419.567V.8H.023l.011.516c.007.344.01 1.404.01 3.18 0 1.777-.006 4.094-.02 6.951h3.534v-5.94c0-.366.04-.656.118-.871.15-.366.378-.672.682-.919.305-.247.683-.37 1.134-.37.616 0 1.069.213 1.36.639.29.426.434 1.015.434 1.767v5.694h3.535V5.344c0-1.569-.373-2.76-1.118-3.572z"/></g></g></svg>