<svg xmlns="http://www.w3.org/2000/svg" width="55" height="52" viewBox="0 0 55 52"><g><g><g><path fill="#754ef9" d="M45.866 6.18c.541 2.843 1.116 5.72 1.624 8.562.068.338.135.643.372.913.271.339.271.677.068 1.016 1.455 7.546 2.843 15.092 4.365 22.639.406 2.03.542 4.162 1.32 6.125.27.338.27.677.068 1.015.169.745.27 1.523.474 2.267.27 1.117.135 2.065-1.083 2.437-1.286.372-2.335-.27-2.47-1.624-.17-1.828-.745-3.587-.982-5.381-.102-.812-.44-.745-.914-.745-3.722 0-7.445.034-11.133-.033-1.15-.034-1.05.778-1.218 1.421a73.303 73.303 0 0 0-.948 4.738c-.102.643-.406 1.116-.778 1.59-.542.406-1.117.203-1.658.102-1.726-1.32-.813-3.08-.542-4.569.575-3.282.71-3.249-2.538-3.249-7.817 0-15.634 0-23.485-.033-1.117 0-1.861 0-1.963 1.522-.068 1.591-.609 3.148-.914 4.704-.237 1.286-.981 1.726-2.267 1.59C-.225 51.053.08 50.004.215 49.192c.643-3.96 1.421-7.885 2.098-11.81.71-4.095 1.76-8.088 2.301-12.216.339-2.538 1.083-5.043 1.658-7.547.068-.338.17-.677-.067-.981-.136-.44.101-.71.372-1.015.575-2.775 1.117-5.55 1.692-8.325.068-.372.237-.778-.034-1.15-.135-.44.102-.711.372-1.016.237-1.387.44-2.775.779-4.128.169-.643.71-.948 1.421-.948 1.015.034 2.03 0 3.046 0h28.426c2.233 0 2.47.305 2.944 2.538.169.846.067 1.794.643 2.538.203.372.203.71 0 1.05z"/></g><g><path fill="#fcfcfc" d="M26.678 3.473c4.298 0 8.562.034 12.86-.034.947 0 1.42.068 1.184 1.252-2.234 11.37-4.433 22.775-6.633 34.145-.169.88-.474 1.185-1.421 1.185-8.697-.034-17.36-.034-26.057 0-1.05 0-1.218-.339-1.05-1.286C7.796 27.365 10.03 15.96 12.196 4.59c.169-.982.575-1.15 1.42-1.15 4.366.067 8.732.033 13.063.033z"/></g><g><path fill="#fefefe" d="M43.395 10.952c1.76 9.17 3.486 18.341 5.313 27.478.237 1.252.102 1.658-1.286 1.59-2.91-.101-5.854-.067-8.798-.033-.948 0-1.354-.034-1.117-1.253 1.794-9.035 3.52-18.104 5.245-27.173.305-.102-.033-.812.643-.61z"/></g><g><path fill="#754ef9" d="M16.12 21.78c1.117.068 1.624.948 2.233 1.659 1.76 2.03 1.76 2.03 3.52.101 2.267-2.504 4.535-5.008 6.768-7.512.812-.914 1.76-1.625 2.843-.576 1.015.948.507 1.93-.305 2.81-3.08 3.417-6.159 6.869-9.272 10.253-1.422 1.59-2.268 1.556-3.723-.068a178.76 178.76 0 0 1-3.316-3.824c-.474-.541-.643-1.184-.27-1.861.338-.643.845-.948 1.522-.981z"/></g></g></g></svg>