<svg xmlns="http://www.w3.org/2000/svg" width="16" height="13" viewBox="0 0 16 13"><g><g><path fill="#754ef9" d="M15.68 1.797c-.565.25-1.171.42-1.809.496A3.164 3.164 0 0 0 15.256.551c-.61.36-1.284.623-2.002.765a3.151 3.151 0 0 0-5.37 2.873A8.947 8.947 0 0 1 1.389.896a3.15 3.15 0 0 0 .975 4.206 3.152 3.152 0 0 1-1.427-.395v.04c0 1.526 1.086 2.8 2.527 3.09-.264.07-.542.11-.83.11-.204 0-.4-.02-.593-.058a3.153 3.153 0 0 0 2.943 2.188 6.323 6.323 0 0 1-3.914 1.347c-.254 0-.505-.015-.751-.043a8.908 8.908 0 0 0 4.83 1.418c5.797 0 8.966-4.802 8.966-8.966l-.01-.408a6.293 6.293 0 0 0 1.576-1.628z"/></g></g></svg>