<svg xmlns="http://www.w3.org/2000/svg" width="25" height="25" viewBox="0 0 25 25"><g><g><g><g><path fill="#f3f3f3" d="M.82 1.414v22.472c0 .329.265.595.594.595h10.832a.594.594 0 1 0 0-1.19H2.004V2.004h21.287v10.18a.594.594 0 1 0 1.19 0V1.413a.594.594 0 0 0-.595-.594H1.414a.594.594 0 0 0-.594.594z"/></g><g><path fill="#f3f3f3" d="M23.29 23.29h-7.054v-7.054h7.055zm1.186.59v-8.234a.594.594 0 0 0-.595-.595h-8.235a.594.594 0 0 0-.595.595v8.24c0 .329.266.595.595.595h8.24a.6.6 0 0 0 .59-.6z"/></g><g><path fill="#f3f3f3" d="M11.448 5.563a.594.594 0 0 0-.594-.594h-5.29a.594.594 0 0 0-.595.594v5.295a.594.594 0 1 0 1.19 0V6.99l6.706 6.707a.589.589 0 0 0 .42.174.589.589 0 0 0 .422-.174.59.59 0 0 0 0-.837L6.99 6.153h3.864a.593.593 0 0 0 .594-.59z"/></g></g></g></g></svg>