<svg xmlns="http://www.w3.org/2000/svg" width="25" height="23" viewBox="0 0 25 23"><g><g><g><g><path fill="#fff" d="M.881 23.015V7.55h5.15v15.465z"/></g><g><path fill="#fff" d="M22.932 8.963C21.85 7.782 20.419 7.19 18.64 7.19c-.655 0-1.25.08-1.787.242-.535.161-.988.388-1.357.679a6.66 6.66 0 0 0-.882.811c-.208.237-.41.514-.609.826v-2.2H8.871l.016.75c.01.5.015 2.04.015 4.62s-.01 5.945-.031 10.096h5.134v-8.63c0-.53.057-.952.172-1.264.219-.53.549-.975.991-1.334.442-.36.991-.539 1.647-.539.894 0 1.552.31 1.974.929.421.619.632 1.474.632 2.567v8.27h5.134v-8.863c0-2.278-.54-4.008-1.623-5.188z"/></g><g><path fill="#fff" d="M3.487.106c-.863 0-1.563.252-2.099.757-.536.504-.804 1.141-.804 1.912 0 .759.26 1.394.78 1.903.52.51 1.208.765 2.06.765h.032c.874 0 1.579-.255 2.115-.765.535-.51.798-1.144.788-1.903-.01-.77-.276-1.408-.796-1.912C5.043.358 4.35.106 3.487.106z"/></g></g></g></g></svg>