<svg xmlns="http://www.w3.org/2000/svg" width="17" height="17" viewBox="0 0 17 17"><g><g><g><g><path fill="#754ef9" d="M.523 16.446V5.8h3.545v10.646z"/></g><g><path fill="#754ef9" d="M15.703 6.772c-.744-.813-1.73-1.22-2.954-1.22-.451 0-.861.056-1.23.167-.37.111-.68.267-.935.467-.254.201-.457.387-.607.56a4.61 4.61 0 0 0-.419.567V5.8H6.023l.011.516c.007.344.01 1.404.01 3.18 0 1.777-.006 4.094-.02 6.951h3.534v-5.94c0-.366.04-.656.118-.871.15-.366.378-.672.682-.919.305-.247.683-.37 1.134-.37.616 0 1.069.213 1.36.639.29.426.434 1.015.434 1.767v5.694h3.535v-6.102c0-1.569-.373-2.76-1.118-3.572z"/></g><g><path fill="#754ef9" d="M2.317.675c-.595 0-1.076.174-1.445.52-.369.348-.553.787-.553 1.317 0 .523.179.96.537 1.31.358.351.83.527 1.418.527h.021c.602 0 1.087-.175 1.456-.526a1.7 1.7 0 0 0 .543-1.311c-.007-.53-.19-.969-.548-1.316C3.388.848 2.91.675 2.316.675z"/></g></g></g></g></svg>