<svg xmlns="http://www.w3.org/2000/svg" width="24" height="19" viewBox="0 0 24 19"><g><g><g><g><path fill="#fff" d="M23.64 2.342a9.538 9.538 0 0 1-2.742.752 4.796 4.796 0 0 0 2.1-2.64 9.628 9.628 0 0 1-3.036 1.159 4.776 4.776 0 0 0-8.138 4.354A13.56 13.56 0 0 1 1.981.977a4.74 4.74 0 0 0-.646 2.4c0 1.657.844 3.12 2.124 3.975a4.776 4.776 0 0 1-2.163-.6v.06a4.78 4.78 0 0 0 3.83 4.683c-.4.108-.822.168-1.258.168-.309 0-.607-.031-.9-.09a4.778 4.778 0 0 0 4.461 3.318 9.582 9.582 0 0 1-5.931 2.04c-.385 0-.765-.022-1.14-.065a13.5 13.5 0 0 0 7.322 2.15c8.785 0 13.587-7.278 13.587-13.589l-.016-.618a9.537 9.537 0 0 0 2.39-2.467z"/></g></g></g></g></svg>